<svg width="70" height="22" viewBox="0 0 70 22" fill="none" xmlns="http://www.w3.org/2000/svg">
<g opacity="0.5" clip-path="url(#clip0_20_2985)">
<path d="M5.61124 3H7.21445V11H5.61124V3ZM8.81766 3.59375L8.85524 3.60938C9.43974 3.91146 9.97414 4.3099 10.4584 4.80469C10.9428 5.29948 11.3603 5.86719 11.711 6.50781C12.0617 7.14844 12.3351 7.84896 12.5314 8.60938C12.7276 9.36979 12.8257 10.1667 12.8257 11C12.8257 12.1042 12.6587 13.1432 12.3247 14.1172C11.9907 15.0911 11.5335 15.9401 10.9532 16.6641C10.3729 17.388 9.69233 17.9583 8.9116 18.375C8.13087 18.7917 7.29795 19 6.41285 19C5.52774 19 4.69482 18.7917 3.91409 18.375C3.13336 17.9583 2.45283 17.388 1.8725 16.6641C1.29217 15.9401 0.835006 15.0911 0.501004 14.1172C0.167001 13.1432 0 12.1042 0 11C0 10.1667 0.0981132 9.36979 0.29434 8.60938C0.490566 7.84896 0.76403 7.14844 1.11473 6.50781C1.46544 5.86719 1.88711 5.29688 2.37977 4.79688C2.87242 4.29688 3.41517 3.89583 4.00803 3.59375L3.98298 5.82812C3.63228 6.08854 3.30871 6.40104 3.01228 6.76562C2.71586 7.13021 2.46327 7.53385 2.25452 7.97656C2.04576 8.41927 1.88503 8.89583 1.7723 9.40625C1.65957 9.91667 1.60321 10.4479 1.60321 11C1.60321 11.8333 1.72846 12.6146 1.97896 13.3438C2.22947 14.0729 2.57391 14.7083 3.01228 15.25C3.45066 15.7917 3.96002 16.2188 4.54034 16.5312C5.12067 16.8438 5.74484 17 6.41285 17C7.08085 17 7.70502 16.8438 8.28535 16.5312C8.86567 16.2188 9.37503 15.7917 9.81341 15.25C10.2518 14.7083 10.5962 14.0729 10.8467 13.3438C11.0972 12.6146 11.2225 11.8333 11.2225 11C11.2225 10.4479 11.1661 9.91667 11.0534 9.40625C10.9407 8.89583 10.7778 8.41927 10.5649 7.97656C10.352 7.53385 10.0973 7.1276 9.80088 6.75781C9.50445 6.38802 9.17671 6.07292 8.81766 5.8125V3.59375Z" fill="white"/>
</g>
<defs>
<clipPath id="clip0_20_2985">
<rect width="12.8257" height="16" fill="white" transform="translate(0 3)"/>
</clipPath>
</defs>
</svg>
