<svg width="46" height="50" viewBox="0 0 46 50" fill="none" xmlns="http://www.w3.org/2000/svg">
<path opacity="0.3" fill-rule="evenodd" clip-rule="evenodd" d="M46 0H0V50H46V0ZM28.779 24.2719H23.787V19.2159C23.787 18.9599 23.659 18.8319 23.403 18.8319H22.667C22.411 18.8319 22.283 18.9599 22.283 19.2159V24.2719H17.291C17.035 24.2719 16.907 24.3892 16.907 24.6239V25.3279C16.907 25.5625 17.035 25.6799 17.291 25.6799H22.283V30.7359C22.283 30.9919 22.411 31.1199 22.667 31.1199H23.403C23.659 31.1199 23.787 30.9919 23.787 30.7359V25.6799H28.779C29.035 25.6799 29.163 25.5625 29.163 25.3279V24.6239C29.163 24.3892 29.035 24.2719 28.779 24.2719Z" fill="white"/>
</svg>
