<svg width="73" height="22" viewBox="0 0 73 22" fill="none" xmlns="http://www.w3.org/2000/svg">
<path opacity="0.5" d="M6.41309 3C9.95469 3.00013 12.8262 5.87145 12.8262 9.41309V12.5869C12.8262 16.1285 9.95469 18.9999 6.41309 19C2.87137 19 0 16.1286 0 12.5869V9.41309C0 5.87137 2.87137 3 6.41309 3ZM5.25879 13.7637C5.01888 13.7637 4.89853 13.8832 4.89844 14.123V16.3018C4.89857 16.5655 5.01892 16.6973 5.25879 16.6973H6.86035C7.08832 16.6973 7.20215 16.5713 7.20215 16.3193V14.1055C7.20215 13.8775 7.08833 13.7637 6.86035 13.7637H5.25879ZM5.6543 5.1416C4.70631 5.1416 3.974 5.39346 3.45801 5.89746C2.94216 6.40145 2.68457 7.12175 2.68457 8.05762V8.47168C2.68468 8.73544 2.81061 8.86719 3.0625 8.86719H4.59277C4.84436 8.86703 4.97059 8.73528 4.9707 8.47168V8.09375C4.9707 7.70979 5.04813 7.43921 5.2041 7.2832C5.3721 7.1272 5.64265 7.0498 6.01465 7.0498H6.33789C6.73389 7.0498 7.01657 7.13376 7.18457 7.30176C7.36433 7.4578 7.4541 7.722 7.4541 8.09375V8.20117C7.4541 8.56117 7.26193 8.89141 6.87793 9.19141L5.87012 10.0195C5.55823 10.2715 5.33607 10.5234 5.2041 10.7754C5.07215 11.0154 5.00586 11.3336 5.00586 11.7295V12.2148C5.00586 12.4668 5.13277 12.5938 5.38477 12.5938H6.80664C7.05842 12.5936 7.18457 12.4667 7.18457 12.2148V11.7471C7.18466 11.4592 7.34058 11.1716 7.65234 10.8838L8.87598 9.89355C9.4159 9.42562 9.68645 8.89747 9.68652 8.30957V8.05762C9.68652 7.12162 9.42811 6.40146 8.91211 5.89746C8.3962 5.39357 7.66454 5.14169 6.7168 5.1416H5.6543Z" fill="white"/>
</svg>
